# xmcd
#
# Track frame offsets: 
#        150
#        10605
#        21016
#        37028
#        47890
#        59202
#        67707
#        81740
#        92735
#        103851
#        114673
#        125619
#        135251
#        145563
#        155495
#        165843
#        175775
#        190886
#        205071
#        225501
#
# Disc length: 3254 seconds
#
# Revision: 0
# Processed by: cddbd v1.5.2PL0 Copyright (c) Steve Scherf et al.
# Submitted via: ExactAudioCopyFreeDBPlugin 1.0
#
DISCID=080cb414
DTITLE=Various Artist - ザ・ベスト NHKみんなのうた
DYEAR=2012
DGENRE=Blues
TTITLE0=山口さんちのツトム君
TTITLE1=北風小僧の寒太郎
TTITLE2=コンピューターおばあちゃん
TTITLE3=赤鬼と青鬼のタンゴ
TTITLE4=天使の羽のマーチ
TTITLE5=クラリネットをこわしちゃった
TTITLE6=トレロ カモミロ
TTITLE7=南の島のハメハメハ大王
TTITLE8=おふろのうた
TTITLE9=天使のパンツ
TTITLE10=おしりかじり虫
TTITLE11=パンダ・ダ・パ・ヤッ
TTITLE12=ラジャ・マハラジャー
TTITLE13=サラマンドラ
TTITLE14=小さな木の実
TTITLE15=オナカの大きな王子さま
TTITLE16=さとうきび畑
TTITLE17=切手のないおくりもの
TTITLE18=ママの結婚
TTITLE19=大きな古時計
EXTD=
EXTT0=
EXTT1=
EXTT2=
EXTT3=
EXTT4=
EXTT5=
EXTT6=
EXTT7=
EXTT8=
EXTT9=
EXTT10=
EXTT11=
EXTT12=
EXTT13=
EXTT14=
EXTT15=
EXTT16=
EXTT17=
EXTT18=
EXTT19=
PLAYORDER=
